<svg width="330" height="330" viewBox="0 0 330 330" fill="none" xmlns="http://www.w3.org/2000/svg">
<path d="M120 115H130C135.523 115 140 119.477 140 125V135H130C124.477 135 120 130.523 120 125V115Z" fill="#99002b"/>
<path d="M210 115H200C194.477 115 190 119.477 190 125V135H200C205.523 135 210 130.523 210 125V115Z" fill="#99002b"/>
<path d="M159.343 150.657C156.219 147.533 156.219 142.467 159.343 139.343C162.467 136.219 167.533 136.219 170.657 139.343C173.781 142.467 173.781 147.533 170.657 150.657L165 156.314L159.343 150.657Z" fill="#99002b"/>
<path fill-rule="evenodd" clip-rule="evenodd" d="M112.824 80C125.642 67.725 144.268 60 165 60C185.732 60 204.358 67.725 217.176 80H245L245 264.998C244.889 264.999 244.777 264.999 244.666 265L244.5 265C230.195 265 217.227 259.279 207.758 250H175C125.294 250 85 209.706 85 160V80H112.824ZM130 160C110.67 160 95 144.33 95 125C95 105.67 110.67 90 130 90C149.33 90 165 105.67 165 125C165 105.67 180.67 90 200 90C219.33 90 235 105.67 235 125C235 144.33 219.33 160 200 160H130Z" fill="#99002b"/>
</svg>
