<?xml version="1.0" standalone="no"?>
<!DOCTYPE svg PUBLIC "-//W3C//DTD SVG 20010904//EN"
 "http://www.w3.org/TR/2001/REC-SVG-20010904/DTD/svg10.dtd">
<svg version="1.0" xmlns="http://www.w3.org/2000/svg"
 width="260.000000pt" height="260.000000pt" viewBox="0 0 260.000000 260.000000"
 preserveAspectRatio="xMidYMid meet">
<metadata>
Created by potrace 1.11, written by Peter Selinger 2001-2013
</metadata>
<rect width="100%" height="100%" fill="#fff"/>
<g transform="translate(0.000000,260.000000) scale(0.100000,-0.100000)"
fill="#CB1A20" stroke="none">
<path d="M0 1300 l0 -1300 1300 0 1300 0 0 1300 0 1300 -1300 0 -1300 0 0
-1300z m1602 960 c100 -21 247 -88 308 -139 l34 -29 -66 -73 c-36 -41 -100
-110 -141 -154 l-75 -80 -28 27 c-69 65 -227 106 -336 89 -104 -17 -188 -74
-204 -137 -13 -52 2 -123 32 -155 37 -39 143 -89 259 -124 279 -83 381 -135
464 -238 141 -175 129 -488 -27 -684 -121 -152 -334 -236 -602 -236 -204 0
-360 44 -516 148 -113 75 -113 76 -73 123 66 75 243 267 251 270 5 2 32 -18
61 -44 128 -116 326 -152 469 -85 86 40 118 84 118 161 0 113 -69 164 -357
260 -106 35 -220 80 -262 104 -99 55 -176 132 -214 214 -27 57 -31 79 -35 171
-7 189 39 312 163 436 175 176 468 242 777 175z"/>
</g>
</svg>
