<?xml version="1.0" standalone="no"?>
<!DOCTYPE svg PUBLIC "-//W3C//DTD SVG 20010904//EN"
 "http://www.w3.org/TR/2001/REC-SVG-20010904/DTD/svg10.dtd">
<svg version="1.0" xmlns="http://www.w3.org/2000/svg"
 width="160.000000pt" height="160.000000pt" viewBox="0 0 160.000000 160.000000"
 preserveAspectRatio="xMidYMid meet">

<g transform="translate(0.000000,160.000000) scale(0.100000,-0.100000)"
fill="#CB1A20" stroke="none">
<path d="M0 800 l0 -800 800 0 800 0 0 800 0 800 -800 0 -800 0 0 -800z m964
436 c49 -15 126 -60 126 -74 0 -4 -27 -38 -61 -74 l-60 -68 -27 20 c-73 52
-190 43 -225 -17 -16 -28 -17 -36 -5 -60 17 -36 56 -57 154 -86 110 -32 167
-67 201 -125 24 -40 28 -57 27 -122 -1 -90 -19 -135 -75 -190 -120 -116 -373
-117 -519 -1 l-24 19 68 77 69 76 26 -24 c40 -38 86 -57 136 -57 92 0 151 54
124 113 -17 37 -42 52 -169 96 -174 61 -220 111 -220 235 0 130 70 219 205
262 55 17 191 17 249 0z"/>
</g>
</svg>
